HIERARCHY
ROOT Hips
{
  OFFSET -102.467 93.6631 130.069
  CHANNELS 6 Xposition Yposition Zposition Zrotation Xrotation Yrotation
  JOINT LeftUpLeg
  {
    OFFSET 8.64259 1.95398 -2.38835
    CHANNELS 3 Zrotation Xrotation Yrotation
    JOINT LeftLeg
    {
      OFFSET 43.7702 0 0
      CHANNELS 3 Zrotation Xrotation Yrotation
      JOINT LeftFoot
      {
        OFFSET 40.6238 0 0
        CHANNELS 3 Zrotation Xrotation Yrotation
        JOINT LeftToeBase
        {
          OFFSET 12.7242 0 0
          CHANNELS 3 Zrotation Xrotation Yrotation
          End Site
          {
            OFFSET 0 0 0
          }
        }
      }
    }
  }
  JOINT RightUpLeg
  {
    OFFSET -8.2249 1.95398 -2.59336
    CHANNELS 3 Zrotation Xrotation Yrotation
    JOINT RightLeg
    {
      OFFSET 43.5653 0 0
      CHANNELS 3 Zrotation Xrotation Yrotation
      JOINT RightFoot
      {
        OFFSET 40.6238 0 0
        CHANNELS 3 Zrotation Xrotation Yrotation
        JOINT RightToeBase
        {
          OFFSET 12.7242 0 0
          CHANNELS 3 Zrotation Xrotation Yrotation
          End Site
          {
            OFFSET 0 0 0
          }
        }
      }
    }
  }
  JOINT Spine
  {
    OFFSET 0.165834 0.87714 6.61349
    CHANNELS 3 Zrotation Xrotation Yrotation
    JOINT Spine1
    {
      OFFSET 7.38963 1.71661e-005 0
      CHANNELS 3 Zrotation Xrotation Yrotation
      JOINT Spine2
      {
        OFFSET 11.9445 1.14441e-005 0
        CHANNELS 3 Zrotation Xrotation Yrotation
        JOINT Spine3
        {
          OFFSET 14.7254 4.19617e-005 0
          CHANNELS 3 Zrotation Xrotation Yrotation
          JOINT Spine4
          {
            OFFSET 10.9679 0 0
            CHANNELS 3 Zrotation Xrotation Yrotation
            JOINT RightShoulder
            {
              OFFSET 2.46616 -1.6653 3.69651
              CHANNELS 3 Zrotation Xrotation Yrotation
              JOINT RightArm
              {
                OFFSET 13.0012 0 0
                CHANNELS 3 Zrotation Xrotation Yrotation
                JOINT RightForeArm
                {
                  OFFSET 28.7848 1.52588e-005 0
                  CHANNELS 3 Zrotation Xrotation Yrotation
                  JOINT RightHand
                  {
                    OFFSET 26.5688 1.52588e-005 0
                    CHANNELS 3 Zrotation Xrotation Yrotation
                    End Site
                    {
                      OFFSET 0 0 0
                    }
                  }
                }
              }
            }
            JOINT LeftShoulder
            {
              OFFSET 2.38034 -1.29275 -3.7523
              CHANNELS 3 Zrotation Xrotation Yrotation
              JOINT LeftArm
              {
                OFFSET 16.3182 6.10351e-005 0
                CHANNELS 3 Zrotation Xrotation Yrotation
                JOINT LeftForeArm
                {
                  OFFSET 27.0901 0 0
                  CHANNELS 3 Zrotation Xrotation Yrotation
                  JOINT LeftHand
                  {
                    OFFSET 24.5451 1.52588e-005 0
                    CHANNELS 3 Zrotation Xrotation Yrotation
                    End Site
                    {
                      OFFSET 0 0 0
                    }
                  }
                }
              }
            }
            JOINT Neck
            {
              OFFSET 5.0226 -0.0266342 0
              CHANNELS 3 Zrotation Xrotation Yrotation
              JOINT Head
              {
                OFFSET 6.69363 2.86102e-005 0
                CHANNELS 3 Zrotation Xrotation Yrotation
                End Site
                {
                  OFFSET 0 0 0
                }
              }
            }
          }
        }
      }
    }
  }
}
MOTION
Frames:	18
Frame Time:	0.0416667
164.077 14.7539 28.8581 -6.10562 -9.10295 -91.4785 -171.799 10.7016 102.126 -24.3861 -3.09975 3.0959 63.1889 -5.76773 -29.2425 76.9118 -0.348244 10.8558 173.937 6.27232 73.8847 -23.5862 2.8393 -4.83303 60.0974 13.3343 35.7661 31.4443 14.1416 78.9355 -0.474708 7.11575 -90.323 12.64 -1.09685 -0.516746 0.96945 -1.11853 -0.467977 -21.5675 -0.890843 -0.822518 -1.55487 -0.890838 -0.822513 105.992 -15.9314 -71.9577 53.782 68.8961 -103.261 -13.9461 -14.9546 -113.91 -28.0771 -1.51609 0.997917 -79.8128 -18.4339 92.0965 -49.1944 -68.3606 -104.234 12.6988 7.02421 -104.786 15.7118 0.281329 -2.0335 64.6836 17.3269 27.6055 -39.6342 2.12278 -22.7798 
164.097 14.8066 29.0019 -5.7155 -8.41166 -91.8063 -171.823 10.7537 101.61 -24.4273 -3.73479 2.91885 64.0155 -5.60608 -29.1472 74.7534 -8.62078 -5.51622 173.993 7.11679 73.3713 -23.9643 0.94479 -4.80831 60.8302 12.7821 34.7965 35.5817 15.1995 74.9931 -0.417719 6.97037 -90.2425 12.9318 -0.945649 -0.370388 1.2611 -0.96103 -0.328415 -21.2757 -0.79062 -0.637476 -1.26305 -0.790597 -0.637506 105.403 -14.4454 -73.2479 48.9901 69.0118 -96.5625 -17.2875 -12.6696 -115.056 -25.5792 -2.03106 3.91853 -80.6473 -16.7562 89.8825 -48.2635 -70.0337 -101.338 13.8729 6.7899 -104.755 13.1586 0.176276 -2.41784 57.7504 14.5266 26.9724 -33.5271 0.610458 -21.41 
164.08 14.744 28.9724 -5.56181 -8.14502 -91.8822 -171.624 10.6868 101.586 -24.2464 -3.62141 2.7584 63.9428 -5.58257 -28.8908 74.8827 -7.9572 -4.22347 174.092 7.29114 73.3115 -23.9098 0.841868 -4.86579 60.6702 12.8412 34.9629 35.9771 15.4822 75.3263 -0.362793 6.85632 -90.2203 13.1601 -0.826119 -0.338213 1.48936 -0.84018 -0.301528 -21.047 -0.686284 -0.570864 -1.03435 -0.686265 -0.570858 104.657 -13.0747 -75.0689 44.2366 70.2958 -90.1194 -18.5712 -11.9037 -115.93 -26.6406 -2.48525 5.52094 -81.5681 -15.9658 87.5062 -44.7129 -71.6068 -96.6449 14.6452 6.56738 -105.359 13.2409 0.489977 -0.137499 45.3874 12.1876 31.0763 -20.2522 -2.19228 -24.7959 
164.061 14.6856 28.9375 -5.5948 -7.64569 -91.8093 -171.277 10.4509 101.766 -24.088 -3.60025 2.62024 63.8893 -5.57154 -28.6876 74.589 -8.05835 -4.53295 174.304 7.35862 73.4401 -23.9867 0.665657 -4.98644 60.7974 12.8255 35.0484 34.2463 14.7011 75.4446 -0.366511 6.90422 -90.1989 13.0645 -0.823189 -0.296737 1.3938 -0.835431 -0.260201 -21.1427 -0.695953 -0.530434 -1.13003 -0.695939 -0.53042 104.557 -12.7693 -75.3073 46.6449 69.9412 -91.7914 -19.1563 -11.631 -115.826 -25.4071 -2.34362 5.41849 -80.8222 -14.4538 89.1203 -48.9729 -70.8381 -99.5317 15.0816 6.74851 -105.646 12.8543 0.466838 -0.201904 47.9494 11.7672 27.6421 -21.8548 -1.51601 -21.7915 
164.058 14.5986 28.9345 -5.6116 -7.08362 -91.772 -171.035 10.2034 101.856 -24.0534 -3.88568 2.53294 64.1262 -5.53963 -28.6963 74.732 -7.9975 -4.36087 174.502 7.39529 73.4855 -23.9226 0.644223 -5.10877 60.7596 12.8993 35.3512 32.8891 13.9502 74.9338 -0.359382 6.95637 -90.1596 12.9607 -0.789975 -0.222994 1.28994 -0.799049 -0.188019 -21.2466 -0.686447 -0.450125 -1.23396 -0.686442 -0.450112 104.587 -12.3628 -75.156 47.9817 69.4039 -92.6308 -19.1925 -11.8809 -116.106 -26.8947 -2.59777 5.89071 -80.0298 -12.5217 90.9263 -52.6441 -69.7191 -101.549 15.7302 6.82902 -106.102 12.8596 0.562642 0.512058 48.6086 10.5269 24.2553 -21.1127 -1.49083 -18.4845 
164.017 14.5042 28.9258 -5.60182 -6.52917 -91.6849 -170.673 9.9816 102.034 -23.8738 -3.88055 2.37992 64.0274 -5.56811 -28.5299 75.7414 -8.28336 -4.53579 174.715 7.41541 73.6186 -23.8181 0.29086 -5.20384 60.742 12.8033 35.1739 33.3563 14.208 75.1133 -0.367113 7.00471 -90.1257 12.8642 -0.789168 -0.156498 1.19348 -0.795279 -0.121596 -21.3432 -0.705668 -0.386439 -1.33055 -0.705643 -0.386433 104.579 -11.218 -74.9956 52.1415 68.5189 -95.1204 -18.1033 -12.7603 -115.606 -26.2237 -2.15717 4.27167 -79.315 -10.9194 92.6911 -56.469 -68.746 -104.08 15.5476 7.25177 -106.206 12.5355 0.544901 0.481218 49.6154 9.59416 21.2177 -20.9638 -1.18972 -15.9723 
163.991 14.4381 28.8793 -5.43961 -5.95063 -91.6957 -170.359 9.91704 102.098 -23.8115 -4.05352 2.195 64.1174 -5.58027 -28.3902 75.0851 -8.07617 -4.38072 174.921 7.63948 73.6284 -23.7436 -0.00499894 -5.27914 60.6612 12.8021 35.3292 34.3379 14.5879 74.779 -0.373706 7.04598 -90.072 12.7821 -0.776622 -0.0512476 1.1114 -0.77811 -0.0169886 -21.4254 -0.725307 -0.28228 -1.41277 -0.725309 -0.28227 104.536 -10.8843 -75.0657 54.872 67.9019 -96.9234 -19.2497 -12.3481 -115.881 -25.4678 -2.27499 5.08405 -78.5078 -9.11273 94.8507 -60.2725 -67.2716 -106.392 15.0464 7.78041 -106.385 13.3122 0.568744 0.415006 51.1831 8.81348 18.1167 -21.5423 -0.639065 -13.6918 
163.966 14.4017 28.8395 -5.43905 -5.45003 -91.5918 -169.941 9.69919 102.31 -23.5628 -3.99574 2.00081 63.9472 -5.57751 -28.1452 75.2363 -8.34974 -4.85178 175.121 7.75091 73.7933 -23.8018 -0.401421 -5.35363 60.658 12.7208 35.0878 33.2801 14.1662 75.0875 -0.374628 7.1164 -90.0405 12.6413 -0.763456 0.00860845 0.970603 -0.762335 0.0421877 -21.5663 -0.730753 -0.221257 -1.55361 -0.730738 -0.221255 104.565 -9.96686 -74.8163 59.4086 67.0359 -100.004 -18.4807 -13.2392 -115.567 -25.5005 -1.95238 3.61465 -77.9081 -7.22782 96.5476 -64.1742 -66.0758 -108.436 15.1111 8.12882 -106.868 13.08 0.531356 0.212529 52.8295 8.14131 15.5846 -22.4247 -0.251032 -11.5196 
164.008 14.3792 28.835 -5.58817 -5.14359 -91.5531 -169.731 9.50354 102.429 -23.5289 -4.37201 1.92784 63.7381 -5.73161 -28.4387 75.7996 -8.58087 -5.08048 175.226 7.69256 73.8474 -23.8085 -0.512499 -5.41425 60.4874 12.749 35.1468 32.282 13.8711 75.8447 -0.396424 7.19486 -89.9959 12.4847 -0.78549 0.0988144 0.81403 -0.780408 0.133297 -21.723 -0.778884 -0.141858 -1.71036 -0.77889 -0.141842 104.497 -9.45452 -74.9339 61.3005 66.7111 -100.977 -19.525 -12.9788 -116.074 -25.9024 -2.30412 5.03561 -77.4369 -5.87611 97.9925 -66.5405 -65.0937 -109.899 15.2259 8.34853 -107.046 13.5251 0.596642 0.548518 52.6688 7.26857 13.7085 -20.9629 -0.19194 -10.2397 
163.973 14.4086 28.7914 -5.69221 -5.0132 -91.2885 -169.499 9.64326 102.706 -23.931 -4.32391 1.88068 64.0538 -5.7288 -28.3739 75.6193 -7.81153 -3.6813 175.304 7.52262 74.1618 -23.6821 -0.570314 -5.35291 60.4997 12.6085 34.8894 33.867 14.4748 75.2355 -0.422276 7.3039 -89.976 12.2669 -0.827875 0.140709 0.596149 -0.820853 0.176992 -21.9411 -0.831897 -0.114632 -1.92844 -0.831879 -0.114634 104.892 -8.33084 -73.4837 64.2198 64.3854 -102.041 -20.064 -12.7813 -116.641 -26.4224 -2.38743 5.18723 -76.8169 -4.77579 99.9958 -69.2261 -63.4933 -112.052 15.5302 8.54603 -107.171 12.9125 0.596175 0.744257 54.781 6.50558 11.3027 -22.1645 0.114808 -8.25644 
163.986 14.4648 28.7537 -5.78265 -5.21137 -91.2976 -169.471 9.70741 102.666 -24.0463 -4.13931 1.83389 63.9796 -5.62435 -27.9208 76.3358 -7.54822 -2.92526 175.308 7.41104 74.1997 -23.7072 -0.57235 -5.36946 60.3967 12.6154 34.8685 34.6991 14.7911 74.9345 -0.50201 7.38885 -89.9523 12.0974 -0.975301 0.202396 0.426851 -0.965475 0.245111 -22.1113 -0.991035 -0.100114 -2.09861 -0.99103 -0.100115 105.015 -7.33906 -72.8641 66.5504 63.2193 -103.254 -20.0782 -13.0243 -116.803 -26.6965 -2.45222 5.35181 -76.2281 -3.82945 101.99 -71.3844 -61.8352 -113.354 15.7001 8.69409 -107.47 12.7056 0.565781 0.583478 55.9749 6.39944 10.382 -22.5434 0.443671 -7.89571 
163.996 14.5369 28.752 -5.85671 -5.64799 -91.3211 -169.685 9.87101 102.602 -24.2319 -4.34565 1.95971 63.8487 -5.66713 -28.0304 75.9333 -7.97666 -3.88357 175.173 7.24412 74.1699 -23.6578 -0.708716 -5.29689 60.4214 12.5224 34.5787 36.7753 15.8234 75.2173 -0.577739 7.45563 -89.924 11.9644 -1.11275 0.272211 0.293934 -1.09971 0.320928 -22.2451 -1.14312 -0.0748502 -2.23241 -1.14312 -0.0748588 105.13 -6.45586 -72.2657 68.6632 62.2655 -104.011 -19.5363 -13.5181 -116.821 -27.0117 -2.26351 4.42593 -76.0041 -3.39133 102.788 -73.1813 -61.2747 -114.967 15.271 9.11258 -107.377 12.9126 0.548372 0.388358 56.5132 6.16684 9.70597 -22.6572 0.508726 -7.23744 
164.005 14.6851 28.7788 -5.89358 -6.54241 -91.3716 -170.089 10.1671 102.344 -24.4834 -4.55276 2.10919 64.5255 -5.33813 -27.9506 73.9987 -6.94618 -2.55077 174.831 7.1622 74.1403 -23.8597 -0.452799 -5.11308 60.5628 12.4759 34.0763 36.5106 15.4383 74.2137 -0.673016 7.50329 -89.8945 11.87 -1.28871 0.34837 0.199637 -1.27214 0.404754 -22.3407 -1.33383 -0.0551321 -2.32799 -1.33383 -0.0551069 105.232 -6.77841 -72.0159 70.1583 62.1943 -105.6 -19.9477 -13.5599 -116.661 -26.6543 -2.35363 4.94747 -75.8527 -2.97344 103.356 -73.5722 -60.5999 -115.339 15.8712 8.95295 -107.476 13.2725 0.569309 0.43023 56.4187 5.474 8.43288 -22.1101 0.508778 -6.16106 
164.004 15.0708 28.6342 -5.47928 -8.08859 -91.463 -170.498 11.0844 101.879 -24.2117 -4.30772 2.00114 63.7413 -5.0172 -26.6897 74.998 -7.14326 -2.60229 174.763 7.67681 74.3987 -24.5254 0.414572 -5.00589 60.3905 12.5928 33.5011 40.0849 16.1007 71.0541 -0.822892 7.50084 -89.8814 11.876 -1.5804 0.405898 0.205866 -1.56099 0.475074 -22.337 -1.62932 -0.0879719 -2.32434 -1.62931 -0.0879347 105.693 -5.10776 -69.9543 69.8419 60.368 -103.662 -20.6387 -13.0396 -117.323 -27.2273 -2.59711 5.73885 -75.8815 -2.77221 103.296 -75.1456 -60.3453 -116.272 15.5955 9.23946 -107.759 13.7818 0.528534 -0.0234896 56.2898 4.83069 7.47412 -21.7041 0.355728 -5.05365 
163.786 15.8639 27.8474 -5.20384 -11.8633 -91.1474 -170.656 12.8823 102.218 -23.1375 -1.84037 1.85191 60.9993 -5.94267 -27.9226 74.4815 -6.93777 -2.47609 174.619 7.36241 75.7706 -24.7475 1.04272 -4.57595 60.1875 11.6249 29.5217 49.3006 18.702 68.34 -0.993338 7.44085 -89.8004 11.9983 -1.88079 0.601956 0.328578 -1.85246 0.684173 -22.2175 -1.97472 0.00865395 -2.20486 -1.97471 0.00863434 105.771 -0.371513 -67.8061 67.2598 60.4449 -93.1332 -18.3499 -13.5541 -119.642 -29.7092 -2.61931 4.9363 -76.6587 -2.90968 100.661 -72.009 -59.1945 -113.706 18.8869 7.59206 -108.842 12.3437 0.406303 -0.467577 50.9201 2.83867 7.55191 -18.3107 -1.12825 -5.99286 
163.451 16.8239 26.5166 -3.85156 -18.2287 -91.9713 -168.57 19.5771 102.066 -30.6312 -3.17499 -0.280227 58.1493 -6.80809 -29.3168 55.7128 -3.67129 -1.28869 174.146 8.56989 76.2891 -26.8615 2.67913 -4.12999 63.4755 10.1653 25.2816 42.0513 12.7979 54.3553 -1.27169 7.36881 -89.4153 12.1512 -2.25122 1.41606 0.481281 -2.1867 1.51378 -22.0676 -2.57266 0.673689 -2.055 -2.57267 0.67369 106.167 1.99222 -64.9687 68.4092 66.8507 -88.0305 -14.4293 -16.1772 -121.816 -27.347 -1.70249 1.9135 -77.8644 -2.30405 96.6803 -69.2773 -57.1608 -112.865 24.105 4.82578 -110.323 11.3119 0.635417 1.66655 48.4413 -0.617342 8.05952 -17.2372 -4.22068 -8.06696 
162.955 17.3559 24.8787 -3.85433 -25.238 -93.8812 -160.86 31.5191 102.436 -55.016 -3.2325 -3.12507 57.8598 -5.02634 -22.2308 41.7792 -0.59149 5.12145 172.854 8.34305 76.01 -28.8521 2.65414 -3.12572 65.3978 8.20623 19.3317 45.4956 5.74227 31.3937 -1.59451 7.34886 -88.9465 12.2025 -2.6705 2.4001 0.531872 -2.56231 2.51527 -22.0171 -3.26822 1.48628 -2.00449 -3.26821 1.48625 106.451 7.42278 -59.3682 72.6107 67.5324 -90.6949 -15.2919 -17.1197 -115.393 -23.7126 -1.00281 -0.31859 -79.2584 -2.27963 91.89 -62.2122 -55.8035 -110.199 30.1439 2.1232 -108.274 10.5367 0.668373 2.33059 46.1801 -3.04641 9.37934 -16.4656 -6.77235 -10.9283 
161.907 17.815 23.101 -2.95496 -35.0298 -96.0928 -156.202 47.5015 98.6495 -81.7021 3.47454 -0.979211 61.5066 -2.41835 -16.886 39.2648 -5.96615e-005 7.8815 171.569 7.35974 75.7399 -28.6029 3.79594 -2.18001 65.2501 6.5125 14.1925 55.1662 -2.96912 8.65017 -2.18354 7.31549 -88.4309 12.2935 -3.59554 3.53695 0.622341 -3.43649 3.69166 -21.9337 -4.49189 2.29242 -1.92102 -4.4919 2.29241 105.849 14.1361 -53.8552 67.1713 65.4155 -91.2368 -12.2601 -19.4477 -91.5957 -21.8963 0.359329 -7.22488 -80.5512 -1.73932 87.4277 -57.5143 -54.0695 -108.928 33.3489 0.924673 -106.378 10.1942 0.569236 1.62337 50.1773 -5.62571 9.67584 -21.9907 -9.32414 -9.83559 
